<svg width="40" height="40" viewBox="0 0 40 40" fill="none" xmlns="http://www.w3.org/2000/svg">
<path d="M25.9167 21.6667C27.1667 21.6667 28.2667 20.9833 28.8333 19.95L34.8 9.13333C34.9404 8.88071 35.0125 8.59579 35.009 8.30676C35.0056 8.01773 34.9267 7.73462 34.7802 7.48544C34.6337 7.23625 34.4247 7.02964 34.1739 6.88603C33.923 6.74243 33.639 6.66681 33.35 6.66667H8.68332L7.11666 3.33333H1.66666V6.66667H4.99999L11 19.3167L8.74999 23.3833C7.53332 25.6167 9.13332 28.3333 11.6667 28.3333H31.6667V25H11.6667L13.5 21.6667H25.9167ZM10.2667 10H30.5167L25.9167 18.3333H14.2167L10.2667 10ZM11.6667 30C9.83332 30 8.34999 31.5 8.34999 33.3333C8.34999 35.1667 9.83332 36.6667 11.6667 36.6667C13.5 36.6667 15 35.1667 15 33.3333C15 31.5 13.5 30 11.6667 30ZM28.3333 30C26.5 30 25.0167 31.5 25.0167 33.3333C25.0167 35.1667 26.5 36.6667 28.3333 36.6667C30.1667 36.6667 31.6667 35.1667 31.6667 33.3333C31.6667 31.5 30.1667 30 28.3333 30Z" fill="white"/>
</svg>
