<svg width="300" height="300" viewBox="0 0 300 300" fill="none" xmlns="http://www.w3.org/2000/svg">
<circle cx="150" cy="150" r="150" fill="#E0650C"/>
<circle cx="150" cy="87" r="20" fill="white"/>
<circle cx="70" cy="106" r="20" fill="white"/>
<circle cx="230" cy="106" r="20" fill="white"/>
<ellipse cx="70.5" cy="164" rx="19.5" ry="33" fill="white"/>
<ellipse cx="229.5" cy="164" rx="19.5" ry="33" fill="white"/>
<ellipse cx="150.5" cy="150" rx="19.5" ry="33" fill="white"/>
<ellipse cx="150" cy="191" rx="123" ry="49" fill="#5C2E03"/>
<path d="M200 165H100L75 200H225L200 165Z" fill="#0B3B68" stroke="black"/>
<path d="M150 169L150.898 171.764H153.804L151.453 173.472L152.351 176.236L150 174.528L147.649 176.236L148.547 173.472L146.196 171.764H149.102L150 169Z" fill="#FADA28"/>
<path d="M150 187L150.898 189.764H153.804L151.453 191.472L152.351 194.236L150 192.528L147.649 194.236L148.547 191.472L146.196 189.764H149.102L150 187Z" fill="#FADA28"/>
<path d="M110 169L110.898 171.764H113.804L111.453 173.472L112.351 176.236L110 174.528L107.649 176.236L108.547 173.472L106.196 171.764H109.102L110 169Z" fill="#FADA28"/>
<path d="M130 177L130.898 179.764H133.804L131.453 181.472L132.351 184.236L130 182.528L127.649 184.236L128.547 181.472L126.196 179.764H129.102L130 177Z" fill="#FADA28"/>
<path d="M100 185L100.898 187.764H103.804L101.453 189.472L102.351 192.236L100 190.528L97.6489 192.236L98.5469 189.472L96.1958 187.764H99.1019L100 185Z" fill="#FADA28"/>
<path d="M170 177L170.898 179.764H173.804L171.453 181.472L172.351 184.236L170 182.528L167.649 184.236L168.547 181.472L166.196 179.764H169.102L170 177Z" fill="#FADA28"/>
<path d="M190 169L190.898 171.764H193.804L191.453 173.472L192.351 176.236L190 174.528L187.649 176.236L188.547 173.472L186.196 171.764H189.102L190 169Z" fill="#FADA28"/>
<path d="M200 185L200.898 187.764H203.804L201.453 189.472L202.351 192.236L200 190.528L197.649 192.236L198.547 189.472L196.196 187.764H199.102L200 185Z" fill="#FADA28"/>
</svg>
